<?xml version='1.0' encoding='UTF-8'?>
<mxfile host="app.diagrams.net">
  <diagram name="Sequence Diagram" id="sequence-diagram">
    <mxGraphModel dx="1228" dy="781" grid="1" gridSize="10">
      <root>
        <mxCell id="0"/>
        <mxCell id="1" parent="0"/>
        <mxCell id="11" value="User" style="swimlane;horizontal=0;" vertex="1" parent="1">
          <mxGeometry x="20" y="20" width="100" height="300" as="geometry"/>
        </mxCell>
        <mxCell id="12" value="App UI" style="swimlane;horizontal=0;" vertex="1" parent="1">
          <mxGeometry x="140" y="20" width="100" height="300" as="geometry"/>
        </mxCell>
        <mxCell id="13" value="Backend" style="swimlane;horizontal=0;" vertex="1" parent="1">
          <mxGeometry x="260" y="20" width="100" height="300" as="geometry"/>
        </mxCell>
        <mxCell id="14" value="Database" style="swimlane;horizontal=0;" vertex="1" parent="1">
          <mxGeometry x="380" y="20" width="100" height="300" as="geometry"/>
        </mxCell>
        <mxCell id="15" value="Select Pay Bills" style="endArrow=block;" edge="1" parent="1" source="11" target="12">
          <mxGeometry relative="1" as="geometry"/>
        </mxCell>
        <mxCell id="16" value="Fetch Bills" style="endArrow=block;" edge="1" parent="1" source="12" target="13">
          <mxGeometry relative="1" as="geometry"/>
        </mxCell>
        <mxCell id="17" value="Retrieve Data" style="endArrow=block;" edge="1" parent="1" source="13" target="14">
          <mxGeometry relative="1" as="geometry"/>
        </mxCell>
        <mxCell id="18" value="Return Data" style="dashed;endArrow=block;" edge="1" parent="1" source="14" target="13">
          <mxGeometry relative="1" as="geometry"/>
        </mxCell>
        <mxCell id="19" value="Return Bills" style="dashed;endArrow=block;" edge="1" parent="1" source="13" target="12">
          <mxGeometry relative="1" as="geometry"/>
        </mxCell>
        <mxCell id="20" value="Confirm Payment" style="endArrow=block;" edge="1" parent="1" source="11" target="12">
          <mxGeometry relative="1" as="geometry"/>
        </mxCell>
        <mxCell id="21" value="Send Payment" style="endArrow=block;" edge="1" parent="1" source="12" target="13">
          <mxGeometry relative="1" as="geometry"/>
        </mxCell>
        <mxCell id="22" value="Update Records" style="endArrow=block;" edge="1" parent="1" source="13" target="14">
          <mxGeometry relative="1" as="geometry"/>
        </mxCell>
        <mxCell id="23" value="Confirmation" style="dashed;endArrow=block;" edge="1" parent="1" source="13" target="12">
          <mxGeometry relative="1" as="geometry"/>
        </mxCell>
      </root>
    </mxGraphModel>
  </diagram>

  </mxfile>
